<svg xmlns="http://www.w3.org/2000/svg" xmlns:xlink="http://www.w3.org/1999/xlink" viewBox="0 0 147.05523 147.04142"><defs><style>.cls-1{isolation:isolate;}.cls-2{fill:#695cfc;}.cls-3,.cls-5{mix-blend-mode:overlay;}.cls-3{fill:url(#White_Black);}.cls-4{fill:#f8d354;}.cls-5{fill:url(#White_Black-2);}</style><linearGradient id="White_Black" x1="16.67798" y1="12.69373" x2="97.62543" y2="100.83651" gradientUnits="userSpaceOnUse"><stop offset="0" stop-color="#fff"/><stop offset="1"/></linearGradient><linearGradient id="White_Black-2" x1="46.85331" y1="43.88627" x2="86.50795" y2="89.93682" xlink:href="#White_Black"/></defs><g class="cls-1"><g id="Layer_1" data-name="Layer 1"><path class="cls-2" d="M80.1577,9.71543l10.31963,8.6592a10.3146,10.3146,0,0,0,6.63008,2.41315h13.47132a10.31456,10.31456,0,0,1,10.15787,8.52346l2.33927,13.26667a10.31462,10.31462,0,0,0,3.52779,6.11031l10.31964,8.6592a10.31456,10.31456,0,0,1,2.3026,13.0587l-6.73566,11.66651a10.3145,10.3145,0,0,0-1.22519,6.9484l2.33927,13.26666a10.31459,10.31459,0,0,1-6.63008,11.48364l-12.6589,4.60746a10.31453,10.31453,0,0,0-5.40489,4.53524l-6.73567,11.66651a10.31458,10.31458,0,0,1-12.46047,4.53524l-12.6589-4.60746a10.31451,10.31451,0,0,0-7.05559,0l-12.6589,4.60746a10.31458,10.31458,0,0,1-12.46047-4.53524L38.14479,122.914a10.31453,10.31453,0,0,0-5.40489-4.53524L20.081,113.77133a10.31459,10.31459,0,0,1-6.63008-11.48364L15.79019,89.021a10.31462,10.31462,0,0,0-1.22519-6.9484L7.82933,70.40613a10.31458,10.31458,0,0,1,2.30261-13.05871l10.31963-8.6592a10.31457,10.31457,0,0,0,3.52779-6.11031l2.33927-13.26667A10.31457,10.31457,0,0,1,36.4765,20.78778H49.94783a10.31459,10.31459,0,0,0,6.63007-2.41315l10.31964-8.6592A10.31456,10.31456,0,0,1,80.1577,9.71543Z"/><path class="cls-3" d="M80.1577,9.71543l10.31963,8.6592a10.3146,10.3146,0,0,0,6.63008,2.41315h13.47132a10.31456,10.31456,0,0,1,10.15787,8.52346l2.33927,13.26667a10.31462,10.31462,0,0,0,3.52779,6.11031l10.31964,8.6592a10.31456,10.31456,0,0,1,2.3026,13.0587l-6.73566,11.66651a10.3145,10.3145,0,0,0-1.22519,6.9484l2.33927,13.26666a10.31459,10.31459,0,0,1-6.63008,11.48364l-12.6589,4.60746a10.31453,10.31453,0,0,0-5.40489,4.53524l-6.73567,11.66651a10.31458,10.31458,0,0,1-12.46047,4.53524l-12.6589-4.60746a10.31451,10.31451,0,0,0-7.05559,0l-12.6589,4.60746a10.31458,10.31458,0,0,1-12.46047-4.53524L38.14479,122.914a10.31453,10.31453,0,0,0-5.40489-4.53524L20.081,113.77133a10.31459,10.31459,0,0,1-6.63008-11.48364L15.79019,89.021a10.31462,10.31462,0,0,0-1.22519-6.9484L7.82933,70.40613a10.31458,10.31458,0,0,1,2.30261-13.05871l10.31963-8.6592a10.31457,10.31457,0,0,0,3.52779-6.11031l2.33927-13.26667A10.31457,10.31457,0,0,1,36.4765,20.78778H49.94783a10.31459,10.31459,0,0,0,6.63007-2.41315l10.31964-8.6592A10.31456,10.31456,0,0,1,80.1577,9.71543Z"/><circle class="cls-4" cx="73.52762" cy="74.86288" r="30.75876"/><circle class="cls-5" cx="73.52762" cy="74.86288" r="30.75876"/></g></g></svg>